<svg version="1.1" id="Layer_1" xmlns="http://www.w3.org/2000/svg" xmlns:xlink="http://www.w3.org/1999/xlink" x="0px" y="0px"
	 width="100%" viewBox="0 0 640 640" enable-background="new 0 0 640 640" xml:space="preserve">
<path fill="#000000" opacity="1.000000" stroke="none" 
	d="
M548.679382,476.027283 
	C548.463379,448.926666 542.936157,423.353912 533.647217,398.518372 
	C533.123535,397.118256 532.697510,395.549011 531.761414,394.456726 
	C524.247437,385.689758 525.169250,375.742462 526.942993,365.348572 
	C528.963806,353.506439 529.002380,341.480621 528.528687,329.483551 
	C528.458923,327.716034 527.902710,325.967743 527.494812,323.803589 
	C524.136475,325.175171 521.253723,326.359711 518.365601,327.530731 
	C504.830597,333.018768 490.214447,334.190094 476.301361,338.038849 
	C458.327576,343.010925 440.397552,347.962646 421.919373,350.683563 
	C417.004822,351.407257 411.970276,351.476654 407.361511,353.805847 
	C405.608795,354.691620 403.619629,354.603333 402.934540,352.198547 
	C402.326019,350.062561 403.450317,348.497711 405.411957,347.943268 
	C409.407745,346.813934 413.430756,345.511780 417.528625,345.058197 
	C437.840637,342.810242 457.114014,336.295044 476.774231,331.293457 
	C489.648590,328.018219 502.956268,326.474884 515.463989,321.640289 
	C518.738403,320.374634 521.988708,319.167053 524.803406,316.977783 
	C527.104553,315.187927 527.059998,313.416168 524.933716,311.661865 
	C522.750305,309.860382 520.442932,308.209930 518.204163,306.474762 
	C513.189270,302.587830 511.432892,297.593536 513.117920,291.434174 
	C513.381409,290.471283 513.437378,289.417053 513.864014,288.538452 
	C521.432068,272.951385 514.216003,259.515594 507.721619,245.971497 
	C507.433167,245.369949 507.112213,244.784012 506.472900,243.543961 
	C501.243500,248.335159 496.704407,252.424088 492.241882,256.594940 
	C475.119080,272.598541 456.457123,286.478302 435.634827,297.310608 
	C426.892578,301.858582 417.541046,304.934906 408.097443,307.697662 
	C407.617981,307.837891 407.135986,308.089508 406.656006,308.087494 
	C404.327087,308.077637 400.993774,309.785309 400.190247,306.440826 
	C399.295380,302.716309 403.116272,303.173279 405.271301,302.605652 
	C413.333740,300.481934 421.145782,297.762054 428.938110,293.625824 
	C424.949463,290.181885 426.000763,288.171570 430.344055,286.604248 
	C432.290558,285.901794 434.232666,284.434631 435.527863,282.800232 
	C445.089325,270.734558 457.384705,261.886169 469.816864,253.169174 
	C471.586700,251.928238 473.276520,250.556091 474.900635,249.127914 
	C478.536224,245.931030 480.057220,242.446884 477.097870,237.758301 
	C474.530487,233.690735 475.459534,229.042664 476.132050,224.607620 
	C476.382782,222.954056 476.777893,221.352768 476.501282,219.677628 
	C475.683746,214.726837 474.118988,213.704620 469.381439,215.232254 
	C462.135712,217.568649 455.537689,220.545837 451.700836,227.972046 
	C448.268280,234.615631 441.094269,235.077576 434.763519,235.945862 
	C426.585480,237.067490 419.977203,240.609558 414.310394,246.405701 
	C410.934509,249.858643 407.359985,253.117508 403.871216,256.459930 
	C402.526703,257.748016 401.088287,259.287140 399.173920,257.667694 
	C397.676270,256.400726 398.149414,254.680908 398.908081,253.069077 
	C403.302032,243.733887 409.001587,235.530716 417.804749,229.685547 
	C422.091553,226.839172 426.091919,223.510788 429.969849,220.112869 
	C434.186981,216.417709 437.262054,211.883286 438.176056,206.175735 
	C439.132294,200.204758 435.927704,196.428955 430.037811,197.396194 
	C422.814514,198.582428 414.773438,199.593658 409.229401,203.792603 
	C402.833557,208.636688 394.974640,213.993942 396.118927,224.534866 
	C396.612305,229.079819 397.028748,233.927109 394.792419,238.296326 
	C393.744141,240.344452 392.405182,242.939438 389.606995,241.887054 
	C387.044647,240.923416 387.946411,238.380478 388.289520,236.202347 
	C389.931244,225.779846 387.836029,215.669083 385.532623,205.588043 
	C385.286346,204.510147 384.499420,203.871216 383.549225,203.504654 
	C379.414856,201.909760 375.261414,200.364258 370.494110,198.566711 
	C370.922913,203.426514 372.878937,206.928238 374.030090,210.650314 
	C374.472198,212.079865 375.081451,213.456848 375.559601,214.876312 
	C376.380463,217.313461 377.220886,220.137268 374.514435,221.615509 
	C371.354889,223.341202 370.658569,219.864471 368.919556,218.283890 
	C359.759460,209.958344 353.567352,199.109070 344.877960,190.411697 
	C343.707855,189.240524 342.390411,188.150208 340.973450,187.303085 
	C333.272003,182.699005 328.030334,176.436584 326.831085,167.239151 
	C326.598602,165.456238 326.068115,163.657745 323.962128,161.569275 
	C310.888123,178.419754 296.592072,193.991302 278.921082,207.496094 
	C286.696350,211.984604 294.027954,214.822830 301.809753,216.476013 
	C304.121094,216.967026 307.128052,216.741318 306.408569,220.101898 
	C305.748016,223.187302 302.684540,222.565170 300.533325,221.998322 
	C287.397980,218.537048 275.181549,212.874329 263.483551,206.048508 
	C261.472107,204.874802 259.379303,203.733688 257.646484,202.210678 
	C253.527359,198.590286 249.846848,199.286346 246.384674,202.991272 
	C241.848953,207.845001 237.258789,212.661270 232.983932,217.739349 
	C231.017822,220.074890 229.926010,222.704422 233.225113,225.483627 
	C236.283722,228.060211 235.196091,231.606903 233.763382,234.728058 
	C231.748917,239.116592 229.577621,243.435608 227.380341,247.736816 
	C226.021393,250.396942 226.205536,252.840149 227.921112,255.239120 
	C235.905899,266.404724 244.983047,276.562775 255.662338,285.230865 
	C261.363647,289.858459 267.999451,292.401031 275.158844,293.670319 
	C277.024628,294.001099 279.135559,294.217224 279.064423,296.616333 
	C278.982025,299.394531 276.641266,299.512024 274.613098,299.313202 
	C260.035858,297.884094 246.590591,293.309296 235.201721,283.905731 
	C226.340546,276.589203 217.536880,269.142365 209.298889,261.144470 
	C192.650757,244.981552 174.559891,230.556473 156.518936,216.051483 
	C155.494049,215.227493 154.369064,214.528015 152.778793,213.411057 
	C147.211975,220.610886 142.564285,228.197723 138.677582,236.243988 
	C137.537155,238.604904 139.577637,240.027863 141.283936,240.998962 
	C148.291794,244.987396 148.857895,251.192657 147.898788,258.298431 
	C146.508606,268.598053 146.816254,278.867767 149.436005,289.015869 
	C150.400299,292.751282 152.417786,295.152435 156.207916,296.210327 
	C159.731079,297.193665 163.175888,298.462677 166.641037,299.647339 
	C169.430481,300.600983 171.946823,302.225281 172.979156,304.963074 
	C176.574249,314.497375 184.995972,318.487366 193.170074,322.491730 
	C198.871246,325.284607 204.508667,328.133789 209.795502,331.607300 
	C219.866470,338.223999 231.276733,340.136261 242.898453,341.320282 
	C244.387054,341.471954 245.753494,341.585327 245.919724,343.148895 
	C246.185257,345.646881 244.239700,346.851959 242.253967,347.104004 
	C236.320999,347.857117 230.366028,348.795654 224.353592,347.698395 
	C216.276184,346.224274 208.498093,343.750031 201.155151,340.133209 
	C177.544540,328.503571 153.997131,316.745361 130.448822,304.989716 
	C125.843056,302.690430 122.088882,299.099670 117.701653,295.819855 
	C115.462585,300.953339 115.061394,306.131317 114.533936,311.134338 
	C112.186646,333.398895 112.012535,355.651245 116.072952,377.791626 
	C116.486259,380.045288 116.954491,382.326813 115.428223,384.532410 
	C106.623253,397.256500 102.805901,411.952393 99.186264,426.661926 
	C95.441566,441.879730 92.567345,457.257355 93.308517,473.059387 
	C93.557701,478.372040 94.039436,483.674255 94.253143,488.987732 
	C94.323151,490.728577 94.589317,492.696167 92.817604,494.079956 
	C90.540306,493.215332 89.850288,491.003510 88.778259,489.227509 
	C69.263412,456.897308 56.298355,422.081787 50.918739,384.729156 
	C42.038742,323.072083 49.795006,263.610504 78.985954,208.189896 
	C122.562645,125.457161 190.175400,73.487663 283.286835,60.441555 
	C377.603241,47.226620 457.634888,78.559113 521.747925,148.909088 
	C558.949280,189.729492 581.382935,238.220016 590.015808,292.665039 
	C600.997375,361.922882 588.940735,427.177795 553.380249,487.857513 
	C552.649719,489.104095 552.253601,490.682800 549.657776,491.444427 
	C548.162109,486.496918 549.030396,481.429688 548.679382,476.027283 
M487.832306,142.667496 
	C483.770721,139.216095 479.816742,135.628036 475.631348,132.333969 
	C419.593384,88.229965 356.046051,70.851410 285.524017,80.336449 
	C231.597900,87.589394 185.416397,111.409180 146.578552,149.328766 
	C112.182411,182.911682 88.909439,223.179764 76.351334,269.540039 
	C66.150574,307.197723 64.485344,345.382812 70.618225,383.886505 
	C71.978851,392.428894 73.775352,400.909668 76.370697,409.191895 
	C77.334915,412.268860 79.685944,413.912689 82.572151,414.309143 
	C85.742363,414.744659 86.879982,411.924866 87.538399,409.598267 
	C89.307739,403.346039 93.229752,398.403259 96.580467,393.040161 
	C99.876839,387.764130 103.633942,382.376282 102.520889,375.479736 
	C97.184235,342.413757 99.308067,309.723541 108.249084,277.549713 
	C122.724564,225.460480 151.519043,182.949997 195.778976,151.759796 
	C249.084717,114.194992 308.246643,101.952263 371.471222,118.020645 
	C448.108459,137.497818 499.415161,186.583817 527.447998,260.034821 
	C538.119019,287.994781 542.241516,317.286560 541.448486,347.266785 
	C541.086548,360.948639 538.782593,374.526886 543.201050,388.325775 
	C546.001770,397.072662 549.547424,405.045990 554.691345,412.435333 
	C557.046265,415.818207 561.555481,415.451538 563.739014,411.820770 
	C564.664001,410.282715 565.179016,408.457062 565.665894,406.702606 
	C575.481201,371.337738 577.068726,335.490967 571.408813,299.331543 
	C561.764465,237.716949 534.148071,185.579224 487.832306,142.667496 
M295.753571,126.337502 
	C288.009552,127.423035 280.291016,128.645859 272.687653,130.512207 
	C236.570435,139.377686 205.350906,157.132080 178.478912,182.657013 
	C171.351685,189.426956 164.946381,196.886795 158.882599,204.649200 
	C156.206924,208.074432 157.032974,210.413132 160.359879,212.261795 
	C163.694733,214.114853 166.575974,216.165298 171.133957,216.144287 
	C177.875977,216.113190 184.054840,220.241714 190.230042,222.815735 
	C194.638840,224.653473 197.188080,224.488998 200.389236,221.888077 
	C201.940186,220.627945 203.491333,219.367859 205.029007,218.091644 
	C216.556335,208.524368 227.497360,198.234375 240.368057,190.341492 
	C244.063828,188.075089 246.976410,187.970322 250.299042,190.722916 
	C253.637161,193.488342 257.475159,195.506134 261.750336,197.427643 
	C263.266357,194.262100 266.227814,194.065460 269.158173,193.402313 
	C273.159088,192.496857 277.036865,193.763596 281.068878,193.314056 
	C290.834320,192.225311 294.725220,183.241302 301.883118,178.668060 
	C309.447357,173.835266 311.728760,163.657822 319.854736,158.553116 
	C325.278015,155.146271 326.799286,154.284988 331.993530,158.360123 
	C339.878845,164.546509 347.209045,171.412918 353.680206,179.021942 
	C364.245789,191.445221 378.463257,196.308945 393.603668,199.574005 
	C394.602600,199.789413 396.200256,200.556656 396.615936,198.957794 
	C397.453705,195.735672 400.311279,195.752075 402.200867,196.172302 
	C408.951660,197.673645 414.964417,195.283066 421.233429,193.664795 
	C436.794373,189.647964 436.823334,189.760239 444.658051,203.834518 
	C448.795258,211.266678 455.892670,213.748520 463.979401,210.673676 
	C466.152161,209.847519 468.390656,209.171600 470.636169,208.563950 
	C475.658783,207.204819 479.276428,208.900833 481.974426,213.408051 
	C484.793488,218.117416 487.940674,222.640717 491.126129,227.116043 
	C492.728699,229.367523 494.584778,231.666092 499.216858,230.102921 
	C485.691864,205.635300 468.128906,185.343460 446.565369,168.571030 
	C402.377991,134.201477 352.235107,120.466805 295.753571,126.337502 
M131.826370,263.116058 
	C130.751389,262.070374 129.653503,261.070435 127.760811,261.153473 
	C125.180229,264.997559 123.923996,269.459717 122.646530,273.904022 
	C121.673294,277.289886 123.369270,278.088287 126.349655,277.625092 
	C132.859756,276.613342 134.660645,272.358002 131.826370,263.116058 
z"/>
<path fill="#000000" opacity="1.000000" stroke="none" 
	d="
M174.640808,530.569092 
	C165.521637,524.224121 164.053940,519.197327 167.691650,506.229370 
	C160.357590,510.026794 153.366211,513.376770 146.634903,517.186340 
	C130.981689,526.045288 114.370064,532.372559 96.742065,535.690369 
	C83.293884,538.221497 69.897217,538.140320 57.303654,531.426208 
	C53.530037,529.414307 50.032322,527.279663 48.938740,522.766785 
	C48.657391,521.605652 48.595657,520.382568 49.656273,519.545288 
	C50.815731,518.630127 51.904648,519.214478 52.778217,520.052673 
	C66.478836,533.198608 82.965454,531.115051 99.339569,528.154419 
	C117.920181,524.794739 134.698914,516.591064 151.087021,507.523865 
	C159.116333,503.081390 167.607971,499.610352 176.166397,496.327484 
	C180.907669,494.508850 185.789124,493.582428 190.831284,494.915192 
	C193.153137,495.528931 195.356583,496.467255 195.425430,499.412476 
	C195.486160,502.010956 194.782410,503.581116 191.576218,502.766235 
	C181.897141,500.306122 176.753372,503.038788 172.674133,512.142578 
	C171.182114,515.472412 171.596054,518.180908 173.773026,520.916626 
	C176.965393,524.928345 181.138138,527.405396 186.168579,527.545837 
	C194.847321,527.788147 203.332489,526.974915 211.504944,523.233459 
	C226.211273,516.500610 240.584732,509.136230 254.888458,501.615997 
	C259.644592,499.115417 264.627502,497.329041 269.927124,496.395721 
	C273.382782,495.787109 276.568909,496.403412 279.453857,498.348358 
	C281.183929,499.514771 281.805450,501.244995 280.821075,503.140961 
	C279.984406,504.752411 278.588135,505.264404 276.627472,504.955750 
	C266.140778,503.304993 254.896210,511.690186 252.930222,522.310730 
	C252.383560,525.263794 253.515701,526.091553 256.083313,525.506714 
	C257.351227,525.217896 258.655121,524.637024 259.692596,523.856079 
	C269.658752,516.354309 280.197296,509.491089 287.651184,499.140839 
	C289.188599,497.006073 290.719421,493.994751 293.879852,496.499817 
	C296.663177,498.706055 295.005280,501.178162 293.390045,503.505829 
	C290.370911,507.856567 286.481537,511.658203 285.036835,517.017273 
	C283.565765,522.473877 286.028442,525.921509 291.671051,526.730042 
	C307.363495,528.978760 321.223541,523.770508 334.655029,516.572998 
	C336.746948,515.452026 337.675201,513.564880 338.468811,511.522827 
	C342.183563,501.964447 347.607574,493.393158 353.739685,485.245544 
	C357.642181,480.060333 362.502808,478.015259 365.972900,479.938934 
	C369.486511,481.886749 370.477020,487.132568 367.916809,493.091644 
	C363.590759,503.160858 356.522369,510.997314 347.438660,517.075439 
	C345.828064,518.153076 343.768707,518.743408 342.879333,520.854370 
	C344.293427,523.459778 346.814606,523.078796 349.030334,522.957092 
	C364.569000,522.104065 379.660217,518.758362 394.622528,514.673462 
	C397.379425,513.920776 397.496155,512.033691 397.760315,509.757416 
	C398.868103,500.212189 413.066956,490.401550 422.426147,492.515747 
	C425.376099,493.182129 427.761414,494.364471 428.709503,497.488220 
	C429.706970,500.774750 428.466736,503.407928 426.176575,505.597015 
	C422.298218,509.304199 417.901337,512.282104 413.058258,514.628357 
	C411.013885,515.618835 408.691040,516.181580 406.812195,518.246216 
	C409.829132,520.823608 413.320068,521.582275 416.955811,521.769958 
	C431.706512,522.531860 446.151459,520.335754 460.512787,517.239502 
	C478.220154,513.421875 495.737122,508.401001 514.103760,508.635345 
	C517.287476,508.675995 520.405396,508.983337 523.515015,509.659180 
	C537.063782,512.603882 541.135193,517.621643 541.021301,531.407410 
	C541.003784,533.523254 540.556213,535.690613 538.000427,535.804321 
	C535.674683,535.907715 535.235535,533.818115 534.872314,531.970093 
	C534.840332,531.807129 534.839966,531.638184 534.812927,531.473938 
	C532.684692,518.558594 529.395386,515.712036 516.141235,515.373413 
	C498.976562,514.934814 482.454865,518.977783 465.922302,522.770264 
	C452.750214,525.791870 439.397736,527.601807 425.989716,528.870056 
	C416.839355,529.735535 408.073303,527.978699 400.742371,521.798889 
	C399.491425,520.744446 398.320221,520.325134 396.656830,520.843262 
	C381.518280,525.558716 365.869446,527.697510 350.166107,529.638672 
	C349.496979,532.689026 351.098022,535.034668 351.671875,537.552673 
	C355.016907,552.230408 354.001984,566.373108 346.308197,579.576782 
	C342.026093,586.925476 337.524384,588.366760 329.986237,585.007751 
	C324.344543,582.493835 323.094452,577.201050 322.734833,571.750549 
	C322.390686,566.534851 324.198914,561.568115 325.273865,556.543335 
	C327.423676,546.494263 329.432953,536.407043 332.969971,526.065735 
	C328.214722,526.447571 324.748566,528.496277 321.148590,529.947693 
	C312.641846,533.377319 303.940765,534.659058 294.753479,533.965210 
	C285.306030,533.251709 278.659515,529.798706 277.686127,518.535461 
	C272.755920,522.363586 268.461548,525.664062 264.206665,529.014709 
	C261.679871,531.004517 258.950348,532.626770 255.754990,533.108521 
	C250.176147,533.949463 246.063889,530.037354 246.195526,524.344604 
	C246.292374,520.156555 248.219284,516.442383 249.755646,511.648529 
	C238.350204,517.403442 228.231323,523.497375 217.325119,528.026367 
	C208.485764,531.697144 199.581711,534.605347 189.813995,534.379456 
	C184.517548,534.256958 179.569305,533.385803 174.640808,530.569092 
M346.015167,541.605530 
	C344.809387,537.016052 343.895813,532.273499 339.831970,529.141663 
	C338.313751,530.070312 337.887970,531.421326 337.599884,532.659668 
	C334.779388,544.781799 331.982117,556.910339 329.357635,569.075806 
	C328.952881,570.951904 329.168823,573.091858 329.614868,574.988159 
	C330.155273,577.285828 331.366516,579.340576 334.093414,579.772217 
	C336.687653,580.183044 338.676178,579.143494 340.067169,577.038635 
	C341.068604,575.523254 342.052704,573.942200 342.704376,572.258789 
	C346.431793,562.630981 347.729980,552.692566 346.015167,541.605530 
M354.658325,495.152069 
	C352.314697,499.256165 349.971039,503.360260 347.026733,508.516205 
	C357.775055,500.263062 362.965515,492.830322 362.713684,486.750000 
	C359.395782,488.166229 359.395782,488.166229 354.658325,495.152069 
M421.203827,500.436646 
	C415.131073,497.919525 405.373199,504.073853 405.366028,511.111633 
	C411.172211,508.239471 417.182556,506.398193 421.203827,500.436646 
z"/>
<path fill="#000000" opacity="1.000000" stroke="none" 
	d="
M382.528198,460.564514 
	C386.383240,466.547485 387.866425,473.481995 393.243866,478.201477 
	C395.570160,480.243164 394.265137,483.314789 390.866608,484.006561 
	C388.617615,484.464355 386.229553,484.254547 383.902954,484.310791 
	C381.703461,484.363953 379.427094,484.403839 378.306274,482.000824 
	C377.190063,479.607697 378.862915,478.362976 380.519318,477.105255 
	C382.338470,475.724030 381.451141,474.126160 380.634399,472.659729 
	C376.020325,464.375031 372.000549,455.765259 366.858215,447.765656 
	C365.338379,445.401337 363.774597,444.341980 360.753021,444.810181 
	C354.344635,445.803162 347.800049,445.094604 341.339386,446.050171 
	C338.509613,446.468689 337.245605,447.312958 337.197449,450.316650 
	C337.093475,456.802124 336.585541,463.280426 336.432953,469.766144 
	C336.352692,473.177063 336.036133,476.544769 340.327789,478.493744 
	C343.217712,479.806183 342.578979,483.292694 339.344086,484.546478 
	C335.694733,485.960938 331.742371,485.751770 328.060669,484.792847 
	C324.987885,483.992523 324.374207,480.415344 327.017761,478.769989 
	C329.484161,477.234924 329.692291,475.333954 329.689087,472.902344 
	C329.662689,452.926025 330.680389,432.981812 331.462738,413.027679 
	C331.729004,406.236298 330.921844,399.405792 330.690887,392.590302 
	C330.612610,390.280487 329.570435,389.267670 327.298462,389.316284 
	C326.307404,389.337494 325.275269,389.320496 324.327393,389.071289 
	C322.547516,388.603363 321.356598,387.342316 321.377655,385.500549 
	C321.399170,383.621674 323.037842,383.136353 324.553772,382.936523 
	C328.175140,382.459137 331.812012,381.753967 335.442322,381.755829 
	C345.745758,381.761139 356.036285,381.326141 366.353394,382.528503 
	C379.178375,384.023163 387.991699,392.051025 389.162598,404.843231 
	C390.007446,414.073578 388.361359,423.076965 385.553009,431.866028 
	C384.317596,435.732483 381.660675,438.307861 378.055359,440.120087 
	C372.488068,442.918427 372.565735,442.967529 375.774506,448.472687 
	C378.036713,452.353821 380.168701,456.310852 382.528198,460.564514 
M347.535858,389.227661 
	C346.205475,389.194000 344.875305,389.145264 343.544708,389.129242 
	C337.350372,389.054688 336.814972,389.294556 337.435120,395.564972 
	C338.157440,402.868164 338.450195,410.159363 338.256439,417.471375 
	C338.111267,422.949738 337.657684,428.419769 337.349091,433.893951 
	C337.218536,436.209320 337.885193,437.732513 340.627350,437.751190 
	C350.949890,437.821625 361.246338,437.757660 371.263123,434.726837 
	C374.773499,433.664703 377.814941,431.969330 378.842621,428.210968 
	C380.906555,420.662811 382.580750,413.023224 381.770203,405.112701 
	C380.918823,396.803497 374.691315,391.011993 366.436096,390.115082 
	C360.465210,389.466339 354.502777,389.291016 347.535858,389.227661 
z"/>
<path fill="#000000" opacity="1.000000" stroke="none" 
	d="
M199.588776,459.285889 
	C194.416306,447.024750 194.415588,446.993469 181.611832,447.286469 
	C169.799774,447.556732 157.990326,447.944885 146.177780,448.184753 
	C143.639145,448.236328 141.665604,448.882111 140.361938,451.218506 
	C135.829437,459.341614 131.242416,467.434296 126.759697,475.390228 
	C127.123787,475.980652 127.226974,476.388916 127.467812,476.500732 
	C129.589218,477.485718 133.260559,477.165710 132.893448,480.498718 
	C132.499603,484.074402 128.910995,483.994507 126.127640,484.166412 
	C122.976219,484.361053 119.805626,484.304718 116.644707,484.260986 
	C115.081429,484.239380 113.618454,483.734100 113.060745,482.079865 
	C112.457504,480.290619 113.470024,479.264099 115.017838,478.610535 
	C116.299385,478.069397 117.164459,477.143311 117.824608,475.909485 
	C132.684906,448.134888 149.872467,421.785797 167.119720,395.473145 
	C167.553894,394.810730 167.861191,394.065125 168.372940,393.078156 
	C165.078171,392.406494 160.278152,394.097595 160.131714,389.406036 
	C159.977951,384.480682 164.918152,385.856628 167.818878,385.320984 
	C177.038757,383.618408 178.473724,384.521454 182.290573,393.152710 
	C189.771423,410.069550 194.810486,427.880585 201.331131,445.148804 
	C204.922760,454.660217 209.517303,463.719666 213.898682,472.875946 
	C214.825241,474.812256 216.218491,476.034607 218.140549,476.852936 
	C219.705780,477.519257 220.413025,478.822418 220.057861,480.493286 
	C219.692017,482.214447 218.318924,483.036346 216.736923,482.965057 
	C213.255539,482.808167 209.686508,482.804932 206.337494,481.985779 
	C202.716949,481.100159 202.830795,478.416260 206.690140,474.862915 
	C204.407547,469.872101 202.067780,464.756256 199.588776,459.285889 
M167.789581,408.243927 
	C161.266754,418.727814 154.743927,429.211731 147.450729,440.933807 
	C163.113266,440.442474 177.117966,441.342316 191.784805,439.438171 
	C187.142456,424.756378 182.598602,410.844604 176.124283,397.172119 
	C172.232498,400.405853 170.619186,404.333313 167.789581,408.243927 
z"/>
<path fill="#000000" opacity="1.000000" stroke="none" 
	d="
M240.294693,391.077332 
	C238.748962,391.131775 237.560608,391.292542 236.435074,391.095123 
	C234.614822,390.775879 233.389160,389.507355 233.234039,387.720276 
	C233.042084,385.508606 234.895554,385.009583 236.559860,384.816925 
	C241.672653,384.225128 246.790924,383.551727 251.925949,383.308289 
	C261.872070,382.836761 271.794220,381.670959 281.795715,382.627838 
	C291.679260,383.573425 304.084167,391.058685 304.586548,405.551392 
	C304.881042,414.046875 305.500275,422.442657 304.042053,430.891693 
	C302.886322,437.587921 298.639008,441.253754 292.769348,443.702118 
	C284.695831,447.069763 276.061493,446.073364 267.680145,447.008606 
	C264.384064,447.376465 261.021240,447.409271 257.704376,447.256470 
	C254.101700,447.090546 252.871979,448.681000 253.333893,452.048035 
	C254.213425,458.459229 255.127426,464.866547 255.912292,471.289520 
	C256.262817,474.158173 257.262970,475.980042 260.579651,475.716125 
	C262.594727,475.555817 264.294708,476.328735 264.445496,478.650665 
	C264.588928,480.858978 263.196686,482.043091 261.162079,482.333527 
	C256.065460,483.061066 250.959442,483.733612 245.844452,484.316559 
	C243.868256,484.541748 242.072067,483.910461 241.618271,481.718597 
	C241.136841,479.393188 242.837341,478.222229 244.687424,477.921967 
	C248.135651,477.362396 249.163620,475.427612 248.571274,472.292938 
	C243.846344,447.288940 244.996948,421.936279 243.970444,396.709991 
	C243.882004,394.536316 245.385742,390.793396 240.294693,391.077332 
M251.326218,394.858887 
	C251.618774,408.297485 252.007843,421.735168 252.138718,435.175354 
	C252.173141,438.709045 253.488968,439.914825 256.882904,439.671295 
	C262.845490,439.243469 268.820038,438.823883 274.793640,438.754974 
	C280.359039,438.690796 285.670349,437.768585 290.843384,435.737549 
	C294.298523,434.380981 296.039429,431.916595 296.668945,428.326782 
	C297.882935,421.403870 297.965912,414.435944 297.616089,407.465088 
	C297.149963,398.176453 291.208862,390.692230 282.392761,389.679718 
	C273.335876,388.639557 264.144836,388.995605 255.022263,389.780670 
	C252.468781,390.000397 251.007202,391.199371 251.326218,394.858887 
z"/>
<path fill="#000000" opacity="1.000000" stroke="none" 
	d="
M512.238281,404.123291 
	C512.623047,406.334351 513.082581,408.125427 513.200500,409.938660 
	C513.748596,418.365875 510.445038,421.315643 501.808563,420.288208 
	C500.029419,420.076569 498.455353,419.550903 498.012543,417.642792 
	C497.509125,415.473145 499.169952,414.405853 500.777100,414.185608 
	C506.210052,413.441040 506.075500,410.238586 504.663147,406.263794 
	C504.329468,405.324677 504.088287,404.350861 503.837067,403.384583 
	C499.104919,385.182922 483.714417,385.251526 472.129608,392.277069 
	C466.761353,395.532593 465.732635,400.316071 468.218872,406.052521 
	C470.199554,410.622498 473.298157,414.131592 477.308258,417.069397 
	C486.437103,423.757233 495.498962,430.476471 503.083069,439.068970 
	C517.714905,455.646423 506.946198,475.331146 489.544617,479.030457 
	C483.016174,480.418335 476.528076,481.687683 469.782898,481.335663 
	C459.732727,480.811249 452.521301,474.172394 451.679260,464.165161 
	C451.443207,461.359863 451.573730,458.502319 451.776093,455.685974 
	C452.223846,449.452698 455.664459,446.554657 461.956909,446.808716 
	C463.889404,446.886749 465.125122,447.750092 465.607361,449.579468 
	C466.037445,451.211060 465.571442,452.882050 464.001709,453.353058 
	C459.122040,454.817230 458.553894,458.454224 459.505554,462.433563 
	C460.682037,467.352997 462.619019,472.053131 467.960449,474.010773 
	C476.203430,477.031769 494.506500,471.204132 499.809418,464.237915 
	C503.292023,459.662964 503.502228,455.173676 500.708954,450.333771 
	C496.302856,442.699341 490.105591,436.687134 483.303192,431.253845 
	C478.879639,427.720581 474.269928,424.420013 469.855042,420.876404 
	C464.869781,416.874939 461.902771,411.478668 460.218689,405.438110 
	C458.155121,398.036407 460.923157,391.024628 467.131226,386.554291 
	C474.753876,381.065338 483.226715,379.788239 492.315735,381.040375 
	C502.143555,382.394287 506.387207,389.661133 509.979675,397.600616 
	C510.868286,399.564362 511.438873,401.671997 512.238281,404.123291 
z"/>
<path fill="#000000" opacity="1.000000" stroke="none" 
	d="
M413.479919,476.334106 
	C415.948517,478.859772 418.727081,477.801117 421.290131,477.778992 
	C427.109924,477.728790 432.929291,477.491180 438.745819,477.255493 
	C442.057434,477.121338 444.191956,475.865936 443.424194,471.980621 
	C442.983032,469.748169 443.538788,467.936066 446.178802,467.610107 
	C449.091309,467.250549 449.871033,469.172943 450.243347,471.526855 
	C451.647003,480.401611 450.130798,483.186554 441.297577,483.818329 
	C430.390045,484.598541 419.389893,484.605774 408.453278,484.241180 
	C402.850983,484.054382 402.663269,482.813171 405.238464,477.849457 
	C405.809082,476.749512 405.895844,475.272552 405.831635,473.987885 
	C404.535797,448.041840 404.802795,422.075470 404.766113,396.113312 
	C404.762024,393.228516 404.371857,390.716095 402.172607,388.373871 
	C399.586517,385.619537 400.527832,383.151459 404.292267,383.030396 
	C417.756348,382.597473 431.232178,382.508453 444.704407,382.368835 
	C447.557343,382.339233 449.571747,383.840302 449.831360,386.768097 
	C450.158783,390.460388 451.811676,394.491882 448.745728,397.698730 
	C446.486572,400.061707 443.154968,398.578033 443.000793,394.691986 
	C442.801453,389.667633 440.199554,389.068085 436.198425,389.329987 
	C429.561829,389.764404 422.914734,390.073761 416.267303,390.290192 
	C413.207703,390.389771 412.301727,391.921448 412.300659,394.741943 
	C412.296112,406.895782 412.171204,419.049591 412.119415,431.203522 
	C412.110046,433.401855 412.081970,436.119873 415.181213,435.799225 
	C418.561127,435.449554 423.148041,438.126038 424.932953,432.770203 
	C425.601349,430.764618 426.184570,428.831360 428.713776,428.864410 
	C430.945312,428.893494 431.742554,430.752289 432.405609,432.441986 
	C433.753784,435.877808 434.326965,439.483246 434.305725,443.179230 
	C434.295319,444.988220 433.775574,446.497925 431.850830,447.048004 
	C430.292236,447.493439 429.013763,447.092468 427.806030,445.877045 
	C425.475525,443.531647 416.963623,442.376465 413.950073,443.723083 
	C411.884979,444.645813 412.267792,446.429840 412.316132,448.008148 
	C412.601379,457.316589 412.968658,466.622467 413.479919,476.334106 
z"/>
<path fill="#000000" opacity="1.000000" stroke="none" 
	d="
M413.161743,364.442688 
	C412.809845,359.390747 415.782043,359.434296 418.533813,361.047729 
	C424.462280,364.523773 428.697144,370.006531 433.433899,374.860748 
	C434.712372,376.170959 433.976074,377.723145 432.750641,378.794159 
	C430.801880,380.497284 428.754974,380.308502 426.961395,378.563080 
	C422.329132,374.055176 417.265717,369.971100 413.161743,364.442688 
z"/>
<path fill="#000000" opacity="1.000000" stroke="none" 
	d="
M243.942932,555.808105 
	C243.502975,555.757507 243.324677,555.687866 243.176453,555.728394 
	C242.881332,555.808838 242.602722,555.949890 242.317307,556.065918 
	C244.627060,557.757385 247.499664,557.960754 250.060425,558.990295 
	C251.771667,559.678284 253.669388,560.229065 253.460739,562.619934 
	C253.278824,564.704712 251.786835,565.752502 249.999557,566.452332 
	C245.599045,568.175293 241.735458,566.465942 237.053223,564.778442 
	C240.979492,560.986755 245.315414,566.025391 248.701889,562.765198 
	C247.084167,560.814026 244.639404,560.937866 242.569580,560.353333 
	C239.751572,559.557678 236.514496,558.718323 237.147827,555.156006 
	C237.759705,551.714539 241.077118,552.323303 243.724960,552.595215 
	C244.841721,552.709839 246.091919,552.480530 246.995911,553.618835 
	C247.420822,555.974060 245.646545,555.700867 243.942932,555.808105 
z"/>
<path fill="#000000" opacity="1.000000" stroke="none" 
	d="
M174.729843,560.961060 
	C177.290298,561.123718 179.647354,560.242310 181.805374,561.807983 
	C179.533539,563.869385 171.340073,565.181335 169.322479,563.988892 
	C167.677612,563.016724 165.259766,554.699524 165.851135,552.413452 
	C166.198792,551.069580 167.130432,550.475403 168.288284,550.254395 
	C171.300659,549.679199 174.338486,549.179199 177.597443,550.467896 
	C176.063126,554.253357 171.928421,552.155579 169.825623,554.464783 
	C171.256866,556.923279 174.047043,554.796753 175.595505,556.453552 
	C175.989944,558.932129 172.634445,558.137817 172.295120,560.075256 
	C172.644821,561.070251 173.588303,560.821960 174.729843,560.961060 
z"/>
<path fill="#000000" opacity="1.000000" stroke="none" 
	d="
M218.972443,563.452759 
	C218.379639,564.288940 217.594727,564.883240 217.172379,564.337769 
	C213.244980,559.265564 208.905731,561.172363 204.562576,563.754761 
	C204.003159,560.448853 207.176712,552.513977 209.316025,551.304443 
	C210.786667,550.472961 211.916901,551.105408 212.822891,552.143066 
	C215.641617,555.371399 218.633881,558.524780 218.972443,563.452759 
z"/>
<path fill="#000000" opacity="1.000000" stroke="none" 
	d="
M386.278656,564.912048 
	C387.126953,561.837158 387.869080,559.109253 388.690491,556.405334 
	C389.162598,554.851135 390.210266,553.853760 391.888947,553.653198 
	C393.767761,553.428711 394.645691,554.702271 395.195618,556.125671 
	C396.512299,559.534058 399.667908,562.363525 398.873932,566.320068 
	C397.710968,567.155334 396.934723,566.823669 396.351654,566.200867 
	C393.946350,563.631592 391.704987,563.349609 389.260040,566.250000 
	C387.781250,568.004272 386.415955,568.111389 386.278656,564.912048 
z"/>
<path fill="#000000" opacity="1.000000" stroke="none" 
	d="
M286.987885,555.260864 
	C286.546631,559.014771 289.364014,562.523376 286.780670,566.167053 
	C283.723938,564.393005 283.847931,561.502502 283.861694,559.087341 
	C283.884583,555.065308 282.769958,552.737732 278.291016,553.033936 
	C277.003662,553.119080 275.706940,552.644287 273.993378,550.292603 
	C281.090820,549.250061 287.328186,549.971558 293.784668,549.921387 
	C293.177582,554.861572 288.028717,551.691223 286.987885,555.260864 
z"/>
<path fill="#000000" opacity="1.000000" stroke="none" 
	d="
M359.525574,559.432251 
	C358.637848,558.249451 357.712921,557.408325 358.485199,555.799255 
	C363.023285,555.320496 363.634735,560.815002 367.385773,561.895203 
	C370.314819,559.752502 369.266479,554.933594 372.780548,553.020935 
	C374.443512,556.360229 371.457367,565.608643 368.477997,566.853333 
	C366.923492,567.502686 365.922363,566.614929 365.020020,565.639099 
	C363.223480,563.696167 361.507690,561.678528 359.525574,559.432251 
z"/>
<path fill="#000000" opacity="1.000000" stroke="none" 
	d="
M450.690369,565.258301 
	C452.715271,566.013611 454.785004,565.046326 456.731201,567.436768 
	C453.186707,568.801147 449.897430,569.043518 446.862335,567.482849 
	C444.590973,566.314880 444.559570,558.033569 446.543915,555.089661 
	C450.949646,557.252441 447.242981,562.505127 450.690369,565.258301 
z"/>
<path fill="#000000" opacity="1.000000" stroke="none" 
	d="
M418.212036,566.341064 
	C416.419128,562.337524 415.348724,558.466248 414.879059,553.873962 
	C419.930817,554.592285 419.095276,558.575378 419.890228,561.107178 
	C420.417694,562.786987 422.287384,565.644104 418.212036,566.341064 
z"/>
</svg>